<svg xmlns="http://www.w3.org/2000/svg" xmlns:xlink="http://www.w3.org/1999/xlink" version="1.1" x="0px" y="0px" viewBox="0 0 512 640" style="enable-background:new 0 0 512 512;" xml:space="preserve"><g><path d="M29.378,328.193c0,1.58,1.03,2.974,2.543,3.432l293.888,89.331c0.333,0.102,0.672,0.146,1.012,0.149   c0.009,0,0.016,0.005,0.025,0.005c0.002,0,0.004,0,0.005,0l0.002,0c0.001,0,0.002,0,0.002,0c0.116,0,0.233-0.007,0.341-0.017   c0.166-0.016,0.301-0.102,0.461-0.14c0.245-0.057,0.483-0.108,0.712-0.216c0.222-0.105,0.405-0.248,0.598-0.393   c0.13-0.097,0.284-0.148,0.401-0.264L481.046,270.71c0.686-0.676,1.072-1.597,1.072-2.557v-29.291c0-0.003-0.002-0.005-0.002-0.008   c-0.002-0.474-0.096-0.94-0.277-1.371c-0.085-0.205-0.238-0.363-0.359-0.546c-0.133-0.204-0.233-0.427-0.406-0.602   c-0.327-0.33-0.717-0.596-1.152-0.779c-0.004-0.002-0.007-0.005-0.01-0.007c-0.188-0.077-0.383-0.067-0.574-0.111   c-0.266-0.063-0.52-0.162-0.806-0.162h-10.12c5.837-10.99,5.65-20.894,5.173-25.027l11.042-10.338   c0.911-0.855,1.317-2.123,1.058-3.348l-3.643-17.502c-0.196-0.953-0.778-1.786-1.597-2.305c-0.834-0.515-1.814-0.679-2.774-0.445   l-16.09,3.977c1.409-4.537,1.287-7.917-0.686-10.226c-0.301-0.357-0.63-0.669-0.981-0.935c3.229-3.779,4.868-7.79,4.882-11.982   c0.018-5.884-3.256-10.52-5.765-13.212l11.411-13.522c0.567-0.669,0.869-1.524,0.848-2.403l-0.841-33.624   c-0.014-0.565-0.187-1.077-0.433-1.547c-0.018-0.035-0.003-0.076-0.022-0.11c-0.035-0.064-0.116-0.082-0.155-0.144   c-0.344-0.539-0.801-0.979-1.373-1.271c-0.049-0.025-0.081-0.064-0.132-0.087c-0.452-0.206-0.943-0.338-1.471-0.338   c-0.028,0-0.056,0-0.091,0c-0.131,0.003-0.242,0.067-0.37,0.084c-0.066,0.008-0.126-0.037-0.191-0.025l-423.683,78.19   c-0.154,0.028-0.283,0.111-0.429,0.158c-0.17,0.054-0.333,0.103-0.489,0.181c-0.249,0.123-0.463,0.281-0.675,0.454   c-0.122,0.1-0.251,0.182-0.359,0.298c-0.233,0.249-0.412,0.535-0.567,0.841c-0.04,0.081-0.105,0.144-0.14,0.228   c-0.158,0.381-0.257,0.792-0.275,1.223c-0.002,0.03,0.012,0.057,0.011,0.087c-0.001,0.02-0.011,0.037-0.011,0.057v39.701   c0,1.636,1.107,3.065,2.69,3.474l13.87,3.578c-2.722,4.061-5.077,9.33-2.34,13.108c3.271,4.522,11.25,3.989,26.85-2.035   c-1.954,4.719-3.958,10.177-5.525,15.584c-2.187-0.228-4.383-0.285-6.579,0.03l-36.111,5.25c-1.758,0.256-3.068,1.765-3.068,3.548   v12.577c-1.289,3.397-6.365,18.552,0,31.818V328.193z M36.551,325.535v-16.936c7.282,6.326,18.22,9.843,32.741,10.414   c7.947,0.316,15.417,0.407,22.467,0.306c21.577,29.399,68.144,32.86,90.139,30.453c6.606-0.743,13.169,0.984,18.472,4.802   l19.404,13.989c8.385,6.052,19.313,7.818,29.197,4.718c12.679-3.965,35.368-9.24,44.713,0.109c1.744,1.748,3.671,3.327,5.709,4.697   c4.462,3.009,9.492,4.543,14.654,4.543c1.904,0,3.828-0.286,5.753-0.707l2.963,30.609L36.551,325.535z M320.064,374.518   c-5.807,1.804-11.705,0.956-16.672-2.382c-1.66-1.114-3.215-2.399-4.637-3.818c-11.418-11.415-34.542-7.324-51.928-1.881   c-7.874,2.473-16.203,1.114-22.864-3.695l-19.404-13.989c-6.725-4.854-15.075-7.051-23.432-6.112   c-22.561,2.431-60.771-2.142-80.342-23.562c29.256-1.238,49.578-6.455,59.789-15.418c7.944,14.371,36.734,55.108,107.702,55.108   c3.909,0,7.951-0.123,12.126-0.382c22.607-1.402,36.213-10.034,47.376-19.415l4.833,1.101c0.266,0.063,0.532,0.091,0.799,0.091   c0.904,0,1.779-0.34,2.452-0.97l8.154-7.635c17.519-2.388,31.839-6.137,43.066-11.148c0.792,3.895,1.293,10.111-1.975,14.94   c-3.376,5.005-10.248,7.646-20.406,7.849c-19.096,0.385-26.598,9.387-29.526,16.872   C332.456,367.015,326.81,372.413,320.064,374.518z M168.083,302.604l150.751,34.333c-10.417,7.901-21.774,13.233-38.88,14.293   C206.76,355.823,177.142,318.204,168.083,302.604z M413.378,269.177c14.266-3.039,26.126-7.551,35.477-13.516   c0.088,0.666,0.33,1.318,0.781,1.855c1.282,1.517,4.623,6.56,3.285,9.765c-1.121,2.669-5.723,4.448-12.973,5.012   c-13.338,1.04-19.929,3.73-21.386,8.725c-1.016,3.503,1.065,6.396,2.557,7.933c0.161,2.862,0,10.353-5.142,15.891   c-3.145,3.385-7.824,5.436-13.658,6.433c4.949-4.045,8.765-8.54,11.122-13.602C418.843,286.082,415.866,275.081,413.378,269.177z    M420.325,260.114l46.175-43.232c-0.348,4.879-1.779,11.628-6.427,18.559C452.549,246.654,439.148,254.889,420.325,260.114z    M406.94,294.643c-6.173,13.252-24.637,22.891-53.588,28.175l53.644-50.226C408.913,277.386,411.034,285.856,406.94,294.643z    M474.944,266.651L329.699,409.688l-2.939-30.366c6.71-3.444,12.223-9.305,15.097-16.633c3.103-7.926,10.837-12.07,22.983-12.315   c12.658-0.252,21.484-3.972,26.241-11.05c4.581-6.816,4.091-14.966,3.082-20.115c0.133,0,0.259,0,0.385,0   c11.915,0,20.896-3.205,26.752-9.555c8.784-9.534,6.893-22.426,6.809-22.973c-0.147-0.925-0.644-1.755-1.394-2.315   c-0.42-0.315-1.177-1.17-1.296-1.271c0.021-0.025,1.667-2.606,15.089-3.65c10.374-0.806,16.777-3.979,19.04-9.425   c1.632-3.926,0.693-8.01-0.736-11.215c6.814-0.862,12.18-4.401,16.133-8.45V266.651z M472.278,242.449   c-3.183,4.35-9.048,9.849-17.928,9.296c3.702-2.924,6.9-6.133,9.597-9.622c0.45,0.202,0.94,0.327,1.464,0.327H472.278z    M464.08,126.828L335.64,279.028l-4.956-28.85l132.815-146.645L464.08,126.828z M448.529,173.436   c0.827,1.576,2.711,2.287,4.364,1.716c0.939-0.326,2.312-0.473,2.48-0.529c0.014,0.024,0.81,2.245-3.636,10.486L332.281,299.392   l-38.047-7.625c3.47-3.734,6.267-6.986,7.877-8.901l30.401,7.843c0.287,0.072,0.58,0.107,0.874,0.109   c0.005,0,0.01,0.003,0.016,0.003c0.002,0,0.004,0,0.004,0c0.001,0,0.002,0,0.003,0c0.002,0,0.003-0.001,0.004-0.001   c0.199-0.001,0.398-0.017,0.605-0.052c0.177-0.031,0.316-0.132,0.482-0.187c0.208-0.067,0.405-0.127,0.597-0.232   c0.277-0.15,0.504-0.345,0.729-0.558c0.1-0.094,0.233-0.139,0.322-0.246l118.204-140.071c1.56,1.82,3.292,4.527,3.27,7.687   c-0.028,3.888-2.732,7.828-8.042,11.716C448.143,169.926,447.702,171.863,448.529,173.436z M161.275,259.611   c5.604-4.326,7.6-3.814,7.923-3.671c1.737,0.726,2.731,5.391,3.424,10.194l-15.737-3.276   C158.335,261.793,159.739,260.795,161.275,259.611z M124.772,269.779c-3.695-2.925-0.32-17.967,5.291-31.294l39.795,10.266   c-4.682-0.666-9.549,2.545-12.969,5.179C131.784,273.292,125.717,270.542,124.772,269.779z M171.964,249.324   c-0.378-0.16-0.764-0.225-1.147-0.326l52.625,13.575c-0.692-0.006-1.376-0.065-2.079,0.039c-5.058,0.739-9.366,4.136-11.257,8.868   c-3.636,9.152-10.304,19.898-21.463,18.941c-5.45-0.448-6.858-8.634-8.252-20.15C179.25,260.833,178.171,251.92,171.964,249.324z    M216.775,274.136c0.939-2.361,3.096-4.056,5.625-4.424c2.158-0.35,4.168,0.445,5.562,2.214c1.426,1.856,3.111,4.224,4.891,6.753   l-16.576-3.453C216.437,274.848,216.621,274.523,216.775,274.136z M229.533,264.145l64.84,16.726   c-6.103,7.023-18.583,20.604-27.323,24.85c-4.672,2.329-20.553-20.097-26.472-28.542c-2.592-3.695-4.96-7.061-7.089-9.835   C232.398,265.968,231.016,264.956,229.533,264.145z M457.082,99.925L325.668,245.037L59.394,173.32L457.082,99.925z    M60.333,228.586c-0.399-0.004-0.56-0.018-0.574,0.032c-0.158-1.115,1.623-4.325,3.888-7.266l12.38,3.193   C65.79,228.316,61.672,228.586,60.333,228.586z M46.764,209.588v-32.242l276.939,74.593l5.229,30.439l-200.064-51.61   c-0.005-0.001-0.01-0.003-0.014-0.004L46.764,209.588z M89.57,228.039l31.369,8.092c-34.055,33.395-40.267,29.843-40.516,29.662   C77.25,263.583,81.609,245.994,89.57,228.039z M118.887,248.088c-0.641,2.126-1.196,4.322-1.662,6.513l-4.45-0.926   C114.718,251.941,116.73,250.114,118.887,248.088z M36.551,258.007l33.043-4.805c1.263-0.179,2.538-0.204,3.81-0.137   c-1.642,8.271-1.474,15.552,2.915,18.612c4.199,2.908,11.219,3.041,29.596-12.101l10.287,2.141   c-0.385,5.755,0.548,10.86,4.115,13.687c5.397,4.27,14.623,2.018,28.446-6.907l24.825,5.168   c1.367,10.82,3.619,23.011,14.468,23.911c9.881,0.778,18.554-4.774,24.915-15.715l25.963,5.408   c10.897,15.204,19.777,25.777,27.536,25.777c1.268,0,2.508-0.284,3.72-0.872c5.592-2.717,12.225-8.459,18.109-14.278l44.404,8.898   c1.184,0.217,2.347-0.119,3.187-0.925l122.791-117.474l17.099-4.228l2.473,11.887l-145.9,136.604l-295.8-67.367V258.007z    M35.31,272.365l118.961,27.093c-8.635,6.345-30.344,14.546-84.699,12.389c-16.287-0.644-27.207-5.138-32.461-13.366   C31.295,289.381,33.73,277.661,35.31,272.365z"/></g><text x="0" y="527" fill="#000000" font-size="5px" font-weight="bold" font-family="'Helvetica Neue', Helvetica, Arial-Unicode, Arial, Sans-serif"><text x="0" y="532" fill="#000000" font-size="5px" font-weight="bold" font-family="'Helvetica Neue', Helvetica, Arial-Unicode, Arial, Sans-serif"></svg>