<svg xmlns="http://www.w3.org/2000/svg" xmlns:xlink="http://www.w3.org/1999/xlink" version="1.1" x="0px" y="0px" viewBox="0 0 24 30" style="enable-background:new 0 0 24 24;" xml:space="preserve"><path d="M23.919,12c0-6.572-5.347-11.918-11.919-11.918c-2.62,0-5.037,0.86-7.007,2.298  C4.954,2.395,4.916,2.412,4.882,2.44c-0.019,0.016-0.03,0.038-0.045,0.057C1.955,4.674,0.082,8.118,0.082,12  c0,6.572,5.347,11.919,11.918,11.919c3.162,0,6.032-1.246,8.167-3.262c0.012-0.008,0.027-0.005,0.038-0.014  c0.025-0.021,0.04-0.049,0.059-0.074C22.513,18.4,23.919,15.364,23.919,12z M23.118,12c0,3.008-1.205,5.736-3.152,7.739  l-2.338-2.778c2.964-0.994,4.905-2.759,4.905-4.817c0-3.183-4.627-5.676-10.533-5.676c-1.051,0-2.059,0.082-3.01,0.23L5.73,2.826  C7.516,1.601,9.675,0.881,12,0.881C18.131,0.881,23.118,5.869,23.118,12z M7.669,7.802C7.807,8.101,7.9,8.435,7.9,8.773  c0,0.364-0.09,0.725-0.261,1.044c-0.104,0.195-0.031,0.437,0.164,0.541c0.06,0.032,0.125,0.047,0.188,0.047  c0.143,0,0.281-0.077,0.353-0.211C8.578,9.76,8.7,9.268,8.7,8.773c0-0.398-0.08-0.794-0.223-1.156  c0.068-0.014,0.138-0.026,0.206-0.039l7.525,8.939c-1.283,0.318-2.71,0.504-4.208,0.504c-5.276,0-9.733-2.232-9.733-4.875  C2.267,10.276,4.499,8.617,7.669,7.802z M11.745,7.275c0.204,0.399,0.33,0.833,0.33,1.286c0,0.467-0.116,0.931-0.335,1.341  c-0.008,0.015-0.008,0.032-0.014,0.048l-2.12-2.519C10.296,7.339,11.011,7.285,11.745,7.275z M12.164,10.471  c0.115-0.022,0.222-0.081,0.282-0.192c0.28-0.525,0.429-1.119,0.429-1.718c0-0.439-0.086-0.869-0.238-1.276  c1.189,0.041,2.326,0.193,3.37,0.438c0.189,0.333,0.297,0.707,0.297,1.092c0,0.371-0.169,0.881-0.336,1.194  c-0.104,0.195-0.031,0.437,0.164,0.541c0.06,0.032,0.124,0.047,0.188,0.047c0.143,0,0.28-0.077,0.353-0.211  c0.215-0.401,0.432-1.042,0.432-1.571c0-0.281-0.04-0.559-0.116-0.826c2.815,0.866,4.744,2.42,4.744,4.156  c0,1.722-1.899,3.266-4.678,4.135L12.164,10.471z M0.881,12c0-3.519,1.648-6.655,4.206-8.693l2.996,3.559  c-3.91,0.822-6.616,2.847-6.616,5.28c0,3.183,4.626,5.676,10.533,5.676c1.74,0,3.363-0.221,4.795-0.607l2.589,3.076  c-1.966,1.753-4.548,2.829-7.384,2.829C5.869,23.118,0.881,18.131,0.881,12z"/><text x="0" y="39" fill="#000000" font-size="5px" font-weight="bold" font-family="'Helvetica Neue', Helvetica, Arial-Unicode, Arial, Sans-serif">Created by myiconfinder</text><text x="0" y="44" fill="#000000" font-size="5px" font-weight="bold" font-family="'Helvetica Neue', Helvetica, Arial-Unicode, Arial, Sans-serif">from the Noun Project</text></svg>