<svg xmlns="http://www.w3.org/2000/svg" data-name="Layer 1" viewBox="0 0 100 125" x="0px" y="0px"><title>Noun_Project_50Icon_5px_grid - diëten iconen line thick - samengesteld pad</title><path d="M50,8.75A41.25,41.25,0,1,0,91.25,50,41.3,41.3,0,0,0,50,8.75Zm0,79.5A38.25,38.25,0,1,1,88.25,50,38.29,38.29,0,0,1,50,88.25ZM72.54,46.86l-.07,0c-2.25-1-6.28-2.88-9.87-4.53A13,13,0,0,1,61.19,45l7.22,3.31-.45.53a4.17,4.17,0,0,0-4.68.28,4.73,4.73,0,0,0-1.59,6l.1.14c-6.55,6.53-15.14,14.53-17.93,17.11l-10.41-8c1.48-1.85,4.54-5.68,8-9.91a10.19,10.19,0,0,0-2.59,1.19,18.91,18.91,0,0,1-3.62,1.7c-2.95,3.66-5,6.31-5.08,6.35a1.42,1.42,0,0,0-.27.55l0,.13c0,.05,0,.1,0,.14a1.11,1.11,0,0,0,0,.26v0a1.48,1.48,0,0,0,.57,1L43,75.51l.07,0a1.51,1.51,0,0,0,.28.15l.13,0a1.25,1.25,0,0,0,.43.07h0a1.58,1.58,0,0,0,.38,0h0s22-6.55,30.6-9.12c2.41-.72,3.79-2.87,3.89-6.06C79,55.75,76,48.37,72.54,46.86ZM65,51.51a1.53,1.53,0,0,1,.71-.29L64.22,52.8A2,2,0,0,1,65,51.51Zm9.08,12.26L49.67,71.06C56.18,65,67.48,54.22,71.12,49.69l.11-.13.17,0,0,0c1.11.52,3.69,4.34,4.32,9C76,60.3,76.06,63.18,74.11,63.77ZM56.33,53.69a4,4,0,0,0,2.33-.78A4.14,4.14,0,0,0,60,47.61,3.28,3.28,0,0,0,57.86,46a3.88,3.88,0,0,0-3.09.7A4.15,4.15,0,0,0,53.38,52h0a3.28,3.28,0,0,0,2.18,1.62A3.92,3.92,0,0,0,56.33,53.69Zm.19-4.57a.92.92,0,0,1,.69-.2.3.3,0,0,1,.22.16,1.23,1.23,0,0,1-.52,1.4.92.92,0,0,1-.69.2.3.3,0,0,1-.22-.16A1.23,1.23,0,0,1,56.52,49.12ZM51.15,56a4.17,4.17,0,0,0-3.32.76,4.48,4.48,0,0,0-1.5,5.72,3.55,3.55,0,0,0,2.33,1.73,4.47,4.47,0,0,0,.82.08A4.32,4.32,0,0,0,52,63.43a4.48,4.48,0,0,0,1.5-5.72A3.54,3.54,0,0,0,51.15,56Zm-.91,5a1.27,1.27,0,0,1-.93.26.53.53,0,0,1-.37-.28h0a1.55,1.55,0,0,1,.64-1.81,1.31,1.31,0,0,1,.76-.27.62.62,0,0,1,.54.29A1.55,1.55,0,0,1,50.24,61Zm-10-.51A3.75,3.75,0,0,0,36,63a2.94,2.94,0,0,0,.36,2.4,3.41,3.41,0,0,0,2.41,1.49,3.92,3.92,0,0,0,.59.05A3.68,3.68,0,0,0,43,64.39,2.89,2.89,0,0,0,42.6,62,3.48,3.48,0,0,0,40.2,60.49Zm-.12,3.08a.86.86,0,0,1-.85.32,1.22,1.22,0,0,1-.32-.11h0a.84.84,0,0,1,.84-.32c.23,0,.32.13.33.1Zm-9.36-9.41a5.23,5.23,0,0,0,1.44.21,10.5,10.5,0,0,0,5-1.76,11,11,0,0,1,4.16-1.67c11.15-1.11,15.9-6.59,16.09-6.82h0A10.42,10.42,0,0,0,59.91,35a18.19,18.19,0,0,0-5.24-9.83c-5.94-5.94-14.4-7.13-19-2.72h0c-.23.2-5.72,4.94-6.82,16.1a11.18,11.18,0,0,1-1.67,4.16c-1,1.84-2.25,4-1.56,6.41l-1.6,1.6A3.72,3.72,0,0,0,20.58,57a3.91,3.91,0,0,0,1.41.88,3.62,3.62,0,0,0,.88,1.4,3.72,3.72,0,0,0,5.26,0,3.73,3.73,0,0,0,1-3.49Zm12.05-31.4a11.24,11.24,0,0,1,1.6.13,15.1,15.1,0,0,1,8.17,4.4,15.13,15.13,0,0,1,4.4,8.17,7.49,7.49,0,0,1-1.76,6.63c-3.36,3.35-10,2.17-14.8-2.63s-6-11.45-2.63-14.8A6.89,6.89,0,0,1,42.77,22.76ZM29.84,44.19a13.52,13.52,0,0,0,2-5.35,30,30,0,0,1,1.3-6.3,18.37,18.37,0,0,0,5.08,9,18.38,18.38,0,0,0,9.07,5.07A29.67,29.67,0,0,1,41,48a13.43,13.43,0,0,0-5.34,2c-2.73,1.54-3.91,2.08-5.9.09S28.3,46.91,29.84,44.19Zm-3.74,12a.71.71,0,0,1-.09.9.72.72,0,0,1-1.23-.53,1.47,1.47,0,0,0-.43-1.11,1.53,1.53,0,0,0-1.06-.44h-.05a.77.77,0,0,1-.54-.2.73.73,0,0,1,.91-1.12,1.5,1.5,0,0,0,1.88-.19l1.75-1.75c.13.14.25.28.39.42s.27.26.41.38l-1.75,1.75A1.51,1.51,0,0,0,26.1,56.23ZM46.79,38.44a5.09,5.09,0,0,0,.77.06,4,4,0,0,0,2.89-1.14c1.79-1.79,1.45-5-.79-7.19h0c-2.23-2.23-5.39-2.58-7.19-.78s-1.44,5,.79,7.18A6.5,6.5,0,0,0,46.79,38.44ZM44.6,31.51a1,1,0,0,1,.76-.26,3.33,3.33,0,0,1,2.18,1c1.07,1.07,1.3,2.44.79,3a1.3,1.3,0,0,1-1.08.23,3.53,3.53,0,0,1-1.87-1C44.32,33.38,44.09,32,44.6,31.51Z"/><text x="0" y="115" fill="#000000" font-size="5px" font-weight="bold" font-family="'Helvetica Neue', Helvetica, Arial-Unicode, Arial, Sans-serif">Created by RROOK</text><text x="0" y="120" fill="#000000" font-size="5px" font-weight="bold" font-family="'Helvetica Neue', Helvetica, Arial-Unicode, Arial, Sans-serif">from the Noun Project</text></svg>