<svg xmlns="http://www.w3.org/2000/svg" xmlns:xlink="http://www.w3.org/1999/xlink" version="1.1" x="0px" y="0px" viewBox="0 0 100 125" style="enable-background:new 0 0 100 100;" xml:space="preserve"><g><path d="M53.1591797,36.5703125c0.1708984,0.359375,0.5292969,0.5693359,0.9033203,0.5693359   c0.1445312,0,0.2910156-0.03125,0.4296875-0.0976562c0.4980469-0.2373047,0.7099609-0.8349609,0.4716797-1.3330078   c-2.0263672-4.2480469-4.6650391-7.6669922-7.6298828-9.8857422c-0.4453125-0.3330078-1.0703125-0.2382812-1.4003906,0.2011719   c-0.3310547,0.4423828-0.2402344,1.0693359,0.2011719,1.4003906   C48.8417969,29.4501953,51.2705078,32.6123047,53.1591797,36.5703125z"/><path d="M89.9951172,38.2548828c-0.0013428-0.0652466-0.0263672-0.1224365-0.0396118-0.184082   c-0.0127563-0.0606689-0.0147705-0.1226196-0.0388794-0.180542c-0.0501709-0.1201172-0.1219482-0.2285156-0.2122803-0.3195801   c-0.0009766-0.0009766-0.0012207-0.0023193-0.0021973-0.0032959c-0.0165405-0.0165405-0.0386353-0.0220947-0.0560303-0.0372314   c-0.0785522-0.0687256-0.1624146-0.1309814-0.2598267-0.1725464c-0.0612183-0.026123-0.1262207-0.0307617-0.1905518-0.0441284   c-0.055481-0.0116577-0.105957-0.0360107-0.1644897-0.0380859c-0.0794678-0.0038452-7.8500977-0.2595825-17.0963745,1.0143433   C67.1796875,24.0748291,56.3452759,9.9960938,42.4599609,9.9960938C23.8818359,9.9960938,10,34.2646484,10,55.9628906   c0,18.765625,14.5615234,34.0322266,32.4599609,34.0322266c3.3479004,0,6.6427002-0.5438232,9.8068237-1.5939941   c2.7335205,1.0487671,5.6276245,1.5871582,8.5359497,1.5871582c6.2314453,0,12.5058594-2.4033203,17.2978516-7.1953125   C90.4667969,70.4277344,90.0195312,39.5634766,89.9951172,38.2548828z M86.5991211,39.2563477L59.472229,66.3832397   l-0.7645264-23.0687256C69.2665405,39.77948,81.5408936,39.2930298,86.5991211,39.2563477z M42.4599609,87.9951172   C25.6640625,87.9951172,12,73.6259766,12,55.9628906c0-20.7548828,13.0263672-43.9667969,30.4599609-43.9667969   c9.2798462,0,21.2577515,8.2393799,27.4647217,26.5946045c-11.720459,1.8580322-20.281311,5.4104614-25.4490967,10.5782471   c-4.5791016,4.5791016-7.1376953,10.6318359-7.2050781,17.0429688c-0.0673828,6.4199219,2.3701172,12.4296875,6.8642578,16.9228516   c1.6259155,1.6259155,3.4413452,2.9477539,5.3707275,3.9944458C47.2069702,87.7014771,44.847229,87.9951172,42.4599609,87.9951172z    M57.5354614,68.3200073L44.8770142,80.9784546c-3.6664429-4.020874-5.6644897-9.2079468-5.6065063-14.7450562   c0.0615234-5.8857422,2.4121094-11.4433594,6.6191406-15.6503906c2.8353882-2.8353882,6.6517334-4.9593506,10.8413086-6.557373   L57.5354614,68.3200073z M76.6865234,81.3789062c-8.4347534,8.4338379-21.8505249,8.7924805-30.394043,1.012207   l12.657959-12.657959l24.1679077,0.800293C81.538208,74.7784424,79.4525146,78.6126709,76.6865234,81.3789062z    M83.8095093,68.5560913L60.887207,67.7963867l27.0905151-27.0905151   C87.8710327,45.8054199,87.2404175,58.0845947,83.8095093,68.5560913z"/></g><text x="0" y="115" fill="#000000" font-size="5px" font-weight="bold" font-family="'Helvetica Neue', Helvetica, Arial-Unicode, Arial, Sans-serif">Created by Made x Made</text><text x="0" y="120" fill="#000000" font-size="5px" font-weight="bold" font-family="'Helvetica Neue', Helvetica, Arial-Unicode, Arial, Sans-serif">from the Noun Project</text></svg>