<svg xmlns="http://www.w3.org/2000/svg" xmlns:xlink="http://www.w3.org/1999/xlink" version="1.1" x="0px" y="0px" viewBox="0 0 100 125" style="enable-background:new 0 0 100 100;" xml:space="preserve"><path d="M90,38.2539062c-0.0013428-0.0652466-0.0263672-0.1224365-0.0396118-0.184082  c-0.0127563-0.0606689-0.0147705-0.1226196-0.0388794-0.180542c-0.0501709-0.1201172-0.1219482-0.2285156-0.2122803-0.3195801  c-0.0009766-0.0009766-0.0012207-0.0023193-0.0021973-0.0032959c-0.0165405-0.0165405-0.0386353-0.0220947-0.0560303-0.0372314  c-0.0785522-0.0687256-0.1624146-0.1309814-0.2598267-0.1725464c-0.0612183-0.026123-0.1262207-0.0307617-0.1905518-0.0441284  c-0.055481-0.0116577-0.105957-0.0360107-0.1644897-0.0380859c-0.0810547-0.0039062-7.9707031-0.2666016-17.3144531,1.0429688  c-6.3823242,0.8939209-11.8751221,2.2678223-16.451416,4.1057739c-0.0187988-0.4023438-0.0509033-0.7988892-0.0849609-1.1945801  c0-0.0003662,0.0002441-0.0006714,0.0002441-0.0010376c0-0.0007935-0.0004272-0.0014648-0.0004272-0.0022583  c-0.2658081-3.0840454-0.9873047-5.9654541-2.1665649-8.5895386c-0.2167969-0.4814453-0.4453125-0.9589844-0.6865234-1.4326172  l-4.6982422-9.2041016V11c0-0.5527344-0.4472656-1-1-1H19.1503906c-0.5527344,0-1,0.4472656-1,1v10.9990234l-4.6982422,9.2050781  C11.1933594,35.6289062,10,40.5625,10,45.4716797v38.8828125c0,0.5527344,0.4472656,1,1,1h35.7039795  C50.7403564,88.3719482,55.6325073,90,60.8027344,90c0.0859375,0,0.1728516,0,0.2587891-0.0009766  c6.4111328-0.0673828,12.4638672-2.6269531,17.0429688-7.2060547C90.4716797,70.4277344,90.0244141,39.5625,90,38.2539062z   M86.6043701,39.2550049L59.4771118,66.3822632l-0.7644653-23.0657349  C69.2770386,39.7783203,81.5477295,39.2894287,86.6043701,39.2550049z M20.1503906,12h25.4833984v9.3232422H20.1503906V12z   M15.2333984,32.1132812l4.4866333-8.7900391H46.064209l4.4865723,8.7890625  c0.2255859,0.4433594,0.4404297,0.8916016,0.6435547,1.34375c0.9370728,2.0843506,1.5575562,4.3535767,1.8707275,6.7714844  H12.4846802C13.0015869,37.4202271,13.9256592,34.6756592,15.2333984,32.1132812z M12,83.3544922V45.4716797  c0-1.0822144,0.0673218-2.1655884,0.1898193-3.2441406h41.0627441c0.0197754,0.34729,0.0304565,0.6986084,0.0379639,1.0514526  c-3.5811768,1.6455688-6.5302124,3.6081543-8.8110352,5.8889771c-9.4580078,9.4589844-9.6113281,24.6962891-0.3408203,33.9667969  c0.0753784,0.0753784,0.154541,0.1455078,0.2307739,0.2197266H12z M45.8935547,50.5820312  c2.8362427-2.8359985,6.6522827-4.9616699,10.8422241-6.5601196l0.8045654,24.2971191l-12.65802,12.65802  C37.1028442,72.4343872,37.4588013,59.0177612,45.8935547,50.5820312z M76.6904297,81.3789062  c-4.2070312,4.2070312-9.7646484,6.5585938-15.6503906,6.6201172C60.9609375,88,60.8828125,88,60.8027344,88  c-5.447937,0-10.5449829-1.993103-14.5082397-5.6069946l12.6599121-12.6599121l24.170166,0.800415  C81.5441284,74.7778931,79.4576416,78.6119385,76.6904297,81.3789062z M83.815979,68.5561523l-22.9248047-0.7598267  l27.0916748-27.0916748C87.8770752,45.803894,87.2484131,58.0834351,83.815979,68.5561523z"/><text x="0" y="115" fill="#000000" font-size="5px" font-weight="bold" font-family="'Helvetica Neue', Helvetica, Arial-Unicode, Arial, Sans-serif">Created by Made x Made</text><text x="0" y="120" fill="#000000" font-size="5px" font-weight="bold" font-family="'Helvetica Neue', Helvetica, Arial-Unicode, Arial, Sans-serif">from the Noun Project</text></svg>