<svg xmlns="http://www.w3.org/2000/svg" data-name="Layer 1" viewBox="0 0 100 125" x="0px" y="0px"><title>Noun_Project_50Icon_5px_grid - diëten iconen line thick - samengesteld pad</title><path d="M50,8.75A41.25,41.25,0,1,0,91.25,50,41.3,41.3,0,0,0,50,8.75Zm0,79.5A38.25,38.25,0,1,1,88.25,50,38.29,38.29,0,0,1,50,88.25ZM76.59,46.6a2.89,2.89,0,0,0-1.16-1,5.16,5.16,0,0,0-.81-5.64,1.88,1.88,0,0,0-.24-.25l-.14-.11A1.67,1.67,0,0,0,74,39.4a5.15,5.15,0,0,0-5.69.37A2.77,2.77,0,0,0,67,38.84a2.93,2.93,0,0,0-2.73,0c-2,1.08-2.91,4.68-3.29,7a5.48,5.48,0,0,0-1.86-.22,3.48,3.48,0,0,0-2.41,1.26c-.19.24-17.29,24-14.68,30.55a1.45,1.45,0,0,0,.63,1h0a1.49,1.49,0,0,0,.94.4,3.24,3.24,0,0,0,.72.08c7.39,0,26.11-20.47,26.29-20.69a3.44,3.44,0,0,0,.74-2.62A5.39,5.39,0,0,0,70.87,54c2.21-.84,5.6-2.47,6.25-4.68A2.91,2.91,0,0,0,76.59,46.6Zm-8.27,9.73c-.73.89-3.76,4.08-7.54,7.66l-2.2-1.78a1.5,1.5,0,0,0-1.89,2.33l1.87,1.51c-.63.57-1.27,1.15-1.91,1.71-7.86,6.93-10.94,8-11.91,8.16-.06-.87.27-3.48,3.86-10.28l1.79,1.45a1.45,1.45,0,0,0,.94.34,1.5,1.5,0,0,0,1-2.67L50.06,63l.21-.38c1.52-2.68,3.13-5.3,4.56-7.54l1.73,1.4a1.45,1.45,0,0,0,.94.34,1.5,1.5,0,0,0,1-2.67l-2-1.6c1.23-1.85,2.19-3.21,2.59-3.7a.43.43,0,0,1,.35-.17h.12c1.17,0,3.36,1.35,5.05,2.8h0l0,0c1.78,1.35,3.64,3.32,3.78,4.47A.45.45,0,0,1,68.32,56.33Zm.73-4.9c-.47-.5-1-1-1.4-1.35l1.77-2.18A1.5,1.5,0,1,0,67.09,46l-1.77,2.18c-.44-.33-.93-.67-1.47-1,.36-2.72,1.22-5.38,1.81-5.67a.24.24,0,0,1,.1,0,2,2,0,0,0,.34.13c-.11,0-.17-.06-.18,0a1.9,1.9,0,0,0,0,.21,2.89,2.89,0,0,0,0,.4,1.5,1.5,0,0,0,2.64,1.18s2.17-2.54,3.85-1.48c1.39,1.42-.63,4.05-.65,4.07a1.5,1.5,0,0,0,1.69,2.34,1.34,1.34,0,0,1,.64-.12,1.47,1.47,0,0,0,.1.13l0,.06C74,49.18,71.6,50.55,69.05,51.43Zm-27.51,2c1.45-1.42,3-2.89,4.37-3.44,9.55-3.65,12.28-8.23,12.77-9.2,3.87-5.65,2.23-13.33-3.78-17.54h0a15,15,0,0,0-3.2-1.69,1.5,1.5,0,0,0-1.32.13,1.51,1.51,0,0,0-.71,1.13,3.16,3.16,0,0,1-2.58,2.79,3.13,3.13,0,0,1-2-.32,1.47,1.47,0,0,0-1.16-.1A1.43,1.43,0,0,0,43,26a3.15,3.15,0,0,1-2.28,1.72,3.18,3.18,0,0,1-2.58-.7A1.44,1.44,0,0,0,37,26.69a1.48,1.48,0,0,0-1,.7c-1.34,2.24-3,6.41-3.07,13.51a15.46,15.46,0,0,1-1.73,5.28c-.94,2.06-2,4.43-1.88,6.59l-2.52,3.59a4.31,4.31,0,0,0-1,8.57,4.31,4.31,0,0,0,3.85,2.38,4.31,4.31,0,0,0,3.87-6.23L36,57.47C38.07,56.84,39.93,55.05,41.54,53.47Zm-7.68-6c1-2.13,2-4.33,2-6.48a27.29,27.29,0,0,1,2-10.66A6.15,6.15,0,0,0,45,28.49a6,6,0,0,0,2.64.11,6.15,6.15,0,0,0,4.51-3.5c.36.2.71.42,1,.65,4.74,3.32,6,9.11,3,13.46a1.38,1.38,0,0,0-.14.27s-2,4.25-11.17,7.75c-2,.77-3.73,2.46-5.4,4.09-3,2.94-4.49,4.11-6.19,2.91S32.13,51.24,33.86,47.42ZM30.69,63.75a1.3,1.3,0,0,1-1.83.32,1.32,1.32,0,0,1-.54-.89,1.51,1.51,0,0,0-.62-1,1.59,1.59,0,0,0-.86-.27,1.06,1.06,0,0,0-.31,0,1.31,1.31,0,0,1-1.35-2,1.32,1.32,0,0,1,1.6-.45,1.51,1.51,0,0,0,1.82-.52l2.07-3a6.34,6.34,0,0,0,.86.73,6.12,6.12,0,0,0,1,.56l-2.07,3a1.49,1.49,0,0,0,.13,1.89A1.31,1.31,0,0,1,30.69,63.75Z"/><text x="0" y="115" fill="#000000" font-size="5px" font-weight="bold" font-family="'Helvetica Neue', Helvetica, Arial-Unicode, Arial, Sans-serif">Created by RROOK</text><text x="0" y="120" fill="#000000" font-size="5px" font-weight="bold" font-family="'Helvetica Neue', Helvetica, Arial-Unicode, Arial, Sans-serif">from the Noun Project</text></svg>