<svg xmlns="http://www.w3.org/2000/svg" xmlns:xlink="http://www.w3.org/1999/xlink" version="1.1" x="0px" y="0px" viewBox="0 0 100 125" enable-background="new 0 0 100 100" xml:space="preserve"><g><path d="M50,0C22.43,0,0,22.43,0,50c0,27.569,22.43,50,50,50c27.569,0,50-22.431,50-50C100,22.43,77.569,0,50,0z M50,95.238   C25.056,95.238,4.762,74.944,4.762,50S25.056,4.762,50,4.762S95.238,25.056,95.238,50S74.944,95.238,50,95.238z"/><path d="M80.85,57.189c-0.034-0.158-0.051-0.323-0.118-0.47c-0.007-0.017-0.005-0.032-0.012-0.049   c-0.051-0.107-0.14-0.177-0.204-0.272c-0.101-0.148-0.188-0.302-0.319-0.425c-0.111-0.107-0.246-0.173-0.374-0.254   c-0.13-0.081-0.249-0.174-0.393-0.232c-0.163-0.062-0.338-0.077-0.512-0.103c-0.119-0.019-0.224-0.069-0.347-0.069   c-0.019,0-0.032,0.009-0.051,0.009c-0.149,0.005-0.296,0.059-0.444,0.091c-0.165,0.035-0.332,0.054-0.481,0.121   c-0.017,0.007-0.032,0.005-0.049,0.012l-10.638,5.073c-7.91-6.094-17.641-8.981-27.638-8.077   c-10.518,0.951-20.041,5.947-26.813,14.067c-0.06,0.069-0.077,0.157-0.125,0.232c-0.09,0.135-0.165,0.267-0.223,0.413   c-0.058,0.143-0.098,0.284-0.127,0.433c-0.028,0.151-0.045,0.293-0.045,0.446c0,0.154,0.018,0.296,0.045,0.447   c0.029,0.148,0.069,0.29,0.127,0.432c0.058,0.146,0.133,0.279,0.223,0.414c0.049,0.074,0.066,0.163,0.125,0.232   c6.773,8.12,16.296,13.114,26.813,14.065c1.213,0.109,2.423,0.165,3.625,0.165c8.689,0,17.03-2.869,23.974-8.201l10.598,5.543   c0.037,0.021,0.079,0.026,0.116,0.045c0.054,0.022,0.107,0.041,0.163,0.06c0.27,0.103,0.546,0.168,0.823,0.168c0,0,0,0,0.002,0l0,0   c0.003,0,0.003,0,0.005,0c0.281-0.002,0.551-0.07,0.813-0.165c0.072-0.025,0.138-0.054,0.207-0.089   c0.214-0.102,0.412-0.232,0.591-0.397c0.025-0.023,0.056-0.039,0.079-0.062c0.16-0.165,0.302-0.349,0.414-0.562   c0.014-0.028,0.012-0.061,0.025-0.091c0.069-0.145,0.098-0.305,0.135-0.465c0.037-0.153,0.086-0.3,0.093-0.454   c0-0.032,0.019-0.06,0.019-0.095V57.696c0-0.019-0.009-0.032-0.009-0.051C80.938,57.491,80.885,57.343,80.85,57.189z    M17.518,68.136c3.416-3.641,7.483-6.479,12.002-8.347c4.138,4.762,4.044,11.919-0.327,16.541   C24.807,74.465,20.85,71.687,17.518,68.136z M39.7,78.983c-1.937-0.175-3.823-0.54-5.667-1.021   c4.282-5.841,4.402-13.788,0.344-19.738c1.737-0.432,3.506-0.773,5.324-0.937c9.257-0.837,18.278,1.985,25.418,7.942   c0.079,0.067,0.177,0.089,0.263,0.142c0.039,0.026,0.081,0.045,0.121,0.068c0.36,0.199,0.741,0.312,1.139,0.312   c0.01,0,0.02,0.004,0.028,0.004c0.002,0,0.002,0,0.002,0c0.391-0.004,0.771-0.088,1.116-0.278l8.403-4.007v13.724l-8.392-4.391   c-0.835-0.465-1.899-0.411-2.681,0.24C57.978,77,48.949,79.829,39.7,78.983z"/><circle cx="26.19" cy="66.667" r="2.381"/><path d="M44.541,60.222c-0.93-0.931-2.437-0.931-3.367,0c-0.93,0.93-0.93,2.437,0,3.366l9.524,9.524   c0.464,0.465,1.074,0.697,1.683,0.697s1.219-0.232,1.684-0.697c0.93-0.931,0.93-2.438,0-3.367L44.541,60.222z"/><path d="M54.064,60.222c-0.93-0.931-2.437-0.931-3.367,0c-0.93,0.93-0.93,2.437,0,3.366l7.143,7.144   c0.465,0.465,1.074,0.697,1.683,0.697c0.609,0,1.219-0.232,1.684-0.697c0.931-0.931,0.931-2.438,0-3.367L54.064,60.222z"/><path d="M42.16,67.364c-0.93-0.93-2.437-0.93-3.367,0c-0.93,0.93-0.93,2.437,0,3.367l4.762,4.762   c0.465,0.465,1.074,0.697,1.684,0.697c0.609,0,1.218-0.232,1.683-0.697c0.93-0.931,0.93-2.437,0-3.367L42.16,67.364z"/><path d="M71.429,28.571c-6.564,0-11.905,5.341-11.905,11.905s5.341,11.905,11.905,11.905c6.563,0,11.904-5.341,11.904-11.905   S77.992,28.571,71.429,28.571z M71.429,47.619c-3.938,0-7.143-3.204-7.143-7.143c0-3.938,3.204-7.143,7.143-7.143   s7.143,3.204,7.143,7.143C78.571,44.415,75.367,47.619,71.429,47.619z"/><path d="M19.382,47.284c0.886,2.938,3.585,5.097,6.808,5.097c3.1,0,5.718-1.996,6.705-4.762h7.581c1.315,0,2.381-1.066,2.381-2.381   v-9.524c0-1.315-1.066-2.381-2.381-2.381h-7.581c-0.987-2.766-3.605-4.762-6.705-4.762c-3.223,0-5.922,2.159-6.808,5.097   c-2.938,0.886-5.097,3.585-5.097,6.808S16.445,46.398,19.382,47.284z M33.333,38.095h4.762v4.762h-4.762V38.095z M21.429,38.095   c1.315,0,2.381-1.066,2.381-2.381c0-1.312,1.068-2.381,2.381-2.381s2.381,1.068,2.381,2.381v9.524c0,1.312-1.068,2.381-2.381,2.381   s-2.381-1.068-2.381-2.381c0-1.315-1.066-2.381-2.381-2.381c-1.312,0-2.381-1.068-2.381-2.381S20.116,38.095,21.429,38.095z"/><path d="M38.095,28.571h7.583c0.986,2.766,3.604,4.762,6.703,4.762c3.223,0,5.922-2.159,6.809-5.097   c2.938-0.886,5.097-3.585,5.097-6.808s-2.158-5.922-5.097-6.808c-0.887-2.938-3.586-5.097-6.809-5.097   c-3.099,0-5.717,1.996-6.705,4.762h-7.581c-1.315,0-2.381,1.066-2.381,2.381v9.524C35.714,27.505,36.78,28.571,38.095,28.571z    M45.238,23.81h-4.762v-4.762h4.762V23.81z M52.381,14.286c1.313,0,2.381,1.068,2.381,2.381c0,1.315,1.065,2.381,2.381,2.381   c1.314,0,2.381,1.068,2.381,2.381s-1.066,2.381-2.381,2.381c-1.315,0-2.381,1.066-2.381,2.381c0,1.312-1.067,2.381-2.381,2.381   c-1.312,0-2.381-1.068-2.381-2.381v-9.524C50,15.354,51.068,14.286,52.381,14.286z"/><circle cx="73.81" cy="40.476" r="2.381"/><path d="M70.731,36.412c-0.931-0.93-2.438-0.93-3.367,0c-0.93,0.93-0.93,2.437,0,3.367c0.465,0.465,1.074,0.697,1.684,0.697   s1.218-0.232,1.684-0.697C71.661,38.849,71.661,37.342,70.731,36.412z"/><path d="M69.048,40.476c-0.609,0-1.219,0.232-1.684,0.698c-0.93,0.93-0.93,2.437,0,3.367s2.437,0.93,3.367,0   c0.93-0.93,0.93-2.437,0-3.367C70.266,40.708,69.657,40.476,69.048,40.476z"/></g><text x="0" y="115" fill="#000000" font-size="5px" font-weight="bold" font-family="'Helvetica Neue', Helvetica, Arial-Unicode, Arial, Sans-serif">Created by Carlo Pico</text><text x="0" y="120" fill="#000000" font-size="5px" font-weight="bold" font-family="'Helvetica Neue', Helvetica, Arial-Unicode, Arial, Sans-serif">from the Noun Project</text></svg>