<svg xmlns="http://www.w3.org/2000/svg" data-name="Laag 2" viewBox="0 0 100 125" x="0px" y="0px"><title>Noun_Project_50Icon_5px_grid - diëten iconen handdrawn - samengesteld pad</title><path d="M70.48,14.36C62.87,9.45,54.11,6.94,45.07,8.29c-8.32,1.24-15.92,5.65-21.92,11.44a53.39,53.39,0,0,0-4.42,4.85C7.69,36.85,5.31,56,13.64,70.41a40.46,40.46,0,0,0,29.71,19.5,43.28,43.28,0,0,0,14.08-.81c8.95-1.84,17.78-5,24.12-11.89a38.88,38.88,0,0,0,9.78-21.09C93.6,39.39,84.35,23.3,70.48,14.36Zm12.3,56.42C78.29,77.66,71.63,82,63.86,84.36c-8.31,2.57-17,3.9-25.53,1.51A38.12,38.12,0,0,1,19.59,73.72C9.64,61.82,9.21,44,17.48,31.12a32.93,32.93,0,0,1,3.38-4.42c5-6.15,11.32-11.37,18.85-14a31.46,31.46,0,0,1,23.76,1.2C77.34,20.37,88.36,34.35,88.69,50A36.73,36.73,0,0,1,82.78,70.78ZM48.17,39.33a4.74,4.74,0,0,0-.78-.77c.42-.46.83-.92,1.26-1.36a14.83,14.83,0,0,0,2.66-2.88,3.76,3.76,0,0,0,0-3.77,2.94,2.94,0,0,0-1.58-1.3,3,3,0,0,0-.8-.12A18.74,18.74,0,0,0,49,25.87a3.2,3.2,0,0,0-3-3.06,5.09,5.09,0,0,0-3.77,1.68,11,11,0,0,0-1.54,1.8c-.13.17-.24.36-.36.54,0-.09-.09-.18-.15-.27A4,4,0,0,0,38.56,25a2.68,2.68,0,0,0-3.78,1.82,16.77,16.77,0,0,0-.15,4.59c0,1.49,0,3,0,4.46a4.88,4.88,0,0,0-2.81,1.45c-1.93,2.09-2,5.36-2.29,8-.85,6.92-1.54,13.88-1.71,20.86-.05,2.37-.45,7.23,3.43,6.46a4.89,4.89,0,0,0,2.85-2.18q1.65-2.18,3.19-4.41c3.74-5.36,7.47-11,9.83-17.14a27.54,27.54,0,0,0,1.45-5C48.89,42.32,49.22,40.65,48.17,39.33Zm-7.28-11.6s0,.08,0,0ZM40,30.61c1.63.41,2.22-1.08,2.89-2.19a7.19,7.19,0,0,1,2.17-2.35c.18-.11.76-.47,1-.22.09.1,0,.46,0,.58a36.52,36.52,0,0,1-.25,4.31,1.48,1.48,0,0,0,1.1,1.45,6.23,6.23,0,0,0,1.88-.08c-.07,0-.06-.19,0,0a.61.61,0,0,1,0,.61,3.34,3.34,0,0,1-.84,1c-1.13,1.08-2.18,2.22-3.26,3.33l-.43-.17a13.09,13.09,0,0,0-1.5-.48c.07-.24.15-.47.22-.7.24-.72.49-1.44.78-2.14l-.07.17a1.6,1.6,0,0,0,.13-1.1,1.56,1.56,0,0,0-.69-.9A1.52,1.52,0,0,0,42,31.6a1.44,1.44,0,0,0-.89.69c-.36.81-.66,1.65-.94,2.49-.13.38-.25.76-.37,1.14-.27,0-.54-.05-.81-.06l-1.27-.11c0-2.46-.09-4.92-.07-7.39v-.31l0,0C38.27,29.07,38.7,30.29,40,30.61Zm5.5,13.51a29,29,0,0,1-1.07,3.55,42.3,42.3,0,0,1-2.15,4.76L38.7,51a1.5,1.5,0,0,0-1.85,1A1.49,1.49,0,0,0,37,53.16l.24.31a1.45,1.45,0,0,0,.66.38l2.93,1.21c-1.22,2.09-2.53,4.12-3.84,6.12q-2.2,3.36-4.59,6.59a13.73,13.73,0,0,1-1.19,1.54c-.47.47-.29.44-.38-.07a21.32,21.32,0,0,1,.06-4.07c.08-2.46.22-4.93.41-7.39.79.15,1.58.32,2.35.54a1.59,1.59,0,0,0,1.15-.15,1.51,1.51,0,0,0,.69-.9,1.53,1.53,0,0,0-1-1.85,26.29,26.29,0,0,0-2.9-.63q.28-3.18.64-6.36c.11-.88.22-1.76.32-2.65,1.07.2,2.12.44,3.16.74a1.5,1.5,0,0,0,1.84-1,1.53,1.53,0,0,0-1-1.85,29.59,29.59,0,0,0-3.59-.82,10.44,10.44,0,0,1,.56-2.44c.93-2.31,3.48-1.7,5.5-1.51a13.11,13.11,0,0,1,3.52.59,15.75,15.75,0,0,1,1.68.6,1.6,1.6,0,0,0,.57.28,3.71,3.71,0,0,1,.91.65C46.29,41.67,45.69,43.28,45.5,44.12Zm24.7-4.9A14.35,14.35,0,0,0,66.12,34c0-.57.08-1.14.11-1.72A1.68,1.68,0,0,0,65,30.51a7,7,0,0,0-1.45-.14,24.46,24.46,0,0,0-5.06.32,1.46,1.46,0,0,0-.9.69,1.69,1.69,0,0,0-.15,1.15L57.64,34a3.84,3.84,0,0,0-1.35,1.08A8.93,8.93,0,0,0,54.51,39a22.54,22.54,0,0,1-1,4.39c-.35.79-1.06,1.77-2,1.86a1.53,1.53,0,0,0-1.5,1.5,1.51,1.51,0,0,0,1.5,1.5c.85,0,1.73-.06,2.6-.12-.63,3.82-3,7.32-4.43,10.86-1.68,4.26-1.82,9.41,1,13.23s8,4,11.74,1.45,5.71-7.14,6.94-11.37a33.53,33.53,0,0,0,.87-14.7,14.78,14.78,0,0,0,2.39.24,1.51,1.51,0,0,0,1.06-2.56C72,43.74,71.21,41.37,70.2,39.22ZM59,36.63h0Zm-2.12,5.74a23.31,23.31,0,0,1,.94-4.13,4,4,0,0,1,.94-1.41l.17-.14h0l.33,0h0a1.11,1.11,0,0,0,.37,0,1.52,1.52,0,0,0,.9-.69,1.75,1.75,0,0,0,.15-1.15l-.21-1.34c.42,0,.83-.07,1.24-.08s.91,0,1.36,0h0c0,.45,0,.9-.08,1.35a1.43,1.43,0,0,0,.7,1.26l0,0a3.52,3.52,0,0,1,.52.38c.23.19.45.39.67.6a11.54,11.54,0,0,1,1.17,1.25l.14.19.24.35c.17.27.33.53.48.81.29.52.54,1.07.79,1.61.46,1,.9,2,1.42,3a11.12,11.12,0,0,1-4.15-2.52,1.45,1.45,0,0,0-2.14.09,1.76,1.76,0,0,0-.69,1.26c0,.48-.13,1-.22,1.43l-.5-2a1.5,1.5,0,0,0-2.5-.66,10.92,10.92,0,0,1-2.84,2.75A9.92,9.92,0,0,0,56.91,42.37ZM67.12,59.06c-.79,3.77-2.14,8-4.87,10.85s-7.23,3.68-9.47,0-1.33-7.68.27-11.25,3.77-7.21,4.14-11.22l.17-.07a7.66,7.66,0,0,0,2-1.38c.34,1.4.69,2.8,1,4.19a1.51,1.51,0,0,0,2.74.36,21.42,21.42,0,0,0,1.79-5.17A13.55,13.55,0,0,0,67,46.56,29.92,29.92,0,0,1,67.12,59.06Z"/><text x="0" y="115" fill="#000000" font-size="5px" font-weight="bold" font-family="'Helvetica Neue', Helvetica, Arial-Unicode, Arial, Sans-serif">Created by RROOK</text><text x="0" y="120" fill="#000000" font-size="5px" font-weight="bold" font-family="'Helvetica Neue', Helvetica, Arial-Unicode, Arial, Sans-serif">from the Noun Project</text></svg>